<svg xmlns="http://www.w3.org/2000/svg" width="1200" height="760" viewBox="0 0 1200 760" role="img" aria-labelledby="title desc">
  <title id="title">Монтаж кондиционера</title>
  <desc id="desc">Внутренний и наружный блок соединены аккуратной трассой</desc>
  <defs>
    <filter id="shadow" x="-20%" y="-20%" width="140%" height="160%"><feDropShadow dx="0" dy="18" stdDeviation="22" flood-color="#24343A" flood-opacity=".12"/></filter>
    <linearGradient id="surface" x1="0" y1="0" x2="1" y2="1"><stop offset="0" stop-color="#FFFFFF"/><stop offset="1" stop-color="#EAF7F6"/></linearGradient>
    <marker id="flow-teal" markerWidth="12" markerHeight="12" refX="10" refY="6" orient="auto" markerUnits="userSpaceOnUse"><path d="M2 1 L10 6 L2 11" fill="none" stroke="#11B8B2" stroke-width="3" stroke-linecap="round" stroke-linejoin="round"/></marker>
    <marker id="flow-amber" markerWidth="12" markerHeight="12" refX="10" refY="6" orient="auto" markerUnits="userSpaceOnUse"><path d="M2 1 L10 6 L2 11" fill="none" stroke="#F2A93B" stroke-width="3" stroke-linecap="round" stroke-linejoin="round"/></marker>
  </defs>
  <rect width="1200" height="760" rx="48" fill="#F7F5F0"/>
  <rect x="42" y="42" width="1116" height="676" rx="40" fill="url(#surface)" stroke="#C9D5D5" stroke-width="4"/>
  <path d="M88 132 V88 H132 M1068 672 H1112 V628" fill="none" stroke="#11B8B2" stroke-width="8" stroke-linecap="round"/>
  <circle cx="1108" cy="92" r="13" fill="#11B8B2"/>
  <g opacity="1" filter="url(#shadow)">
      <rect x="165" y="395" width="210" height="210" rx="18" fill="#F2F4F3" stroke="#C9D5D5" stroke-width="3"/>
      <circle cx="270.0" cy="500.0" r="65.1" fill="none" stroke="#075E63" stroke-width="7"/>
      <circle cx="270.0" cy="500.0" r="8" fill="#075E63"/>
      <path d="M270.0 443.3 Q316.2 483.2 270.0 500.0 Q223.8 516.8 270.0 556.7" fill="none" stroke="#075E63" stroke-width="5"/>
    </g>
      <g filter="url(#shadow)">
      <rect x="610" y="205" width="330" height="112" rx="22" fill="#FFFFFF" stroke="#C9D5D5" stroke-width="3"/>
      <path d="M628 302 H922" stroke="#24343A" stroke-width="7" stroke-linecap="round"/>
    </g>
      <path d="M375 500 H485 V335 H610" fill="none" stroke="#075E63" stroke-width="16" stroke-linejoin="round"/>
      <path d="M375 535 H520 V365 H610" fill="none" stroke="#11B8B2" stroke-width="16" stroke-linejoin="round"/>
      <path d="M760 345 C880 325 880 490 1000 470" fill="none" stroke="#11B8B2" stroke-width="10" stroke-linecap="round" opacity=".82" marker-end="url(#flow-teal)"/><path d="M760 375 C880 355 880 520 1000 500" fill="none" stroke="#11B8B2" stroke-width="10" stroke-linecap="round" opacity=".82" marker-end="url(#flow-teal)"/><path d="M760 405 C880 385 880 550 1000 530" fill="none" stroke="#11B8B2" stroke-width="10" stroke-linecap="round" opacity=".82" marker-end="url(#flow-teal)"/>
</svg>